ply
format ascii 1.0
element vertex 27
property float x
property float y
property float z
property float u
property float v
end_header
390.194 537.838 0 390.194 537.838
376.609 536.116 0 376.609 536.116
364.816 529.317 0 364.816 529.317
354.876 520.036 0 354.876 520.036
346.782 509.271 0 346.782 509.271
341.421 496.994 0 341.421 496.994
337.881 483.793 0 337.881 483.793
334.821 470.304 0 334.821 470.304
332.579 456.701 0 332.579 456.701
340.692 434.697 0 340.692 434.697
347.948 429.511 0 347.948 429.511
356.805 427.636 0 356.805 427.636
365.86 428.169 0 365.86 428.169
374.598 430.408 0 374.598 430.408
399.559 429.638 0 399.559 429.638
408.149 426.637 0 408.149 426.637
417.198 425.352 0 417.198 425.352
426.27 426.452 0 426.27 426.452
434.056 430.975 0 434.056 430.975
442.956 452.625 0 442.956 452.625
441.516 466.637 0 441.516 466.637
439.232 480.571 0 439.232 480.571
436.482 494.223 0 436.482 494.223
431.954 506.973 0 431.954 506.973
424.516 518.236 0 424.516 518.236
415.068 528.02 0 415.068 528.02
403.683 535.434 0 403.683 535.434
