ply
format ascii 1.0
element vertex 75
property float x
property float y
property float z
property float u
property float v
element face 25
property list uchar int vertex_indices
end_header
356.792 427.629 0 356.792 427.629
332.632 456.844 0 332.632 456.844
340.529 434.668 0 340.529 434.668
356.792 427.629 0 356.792 427.629
340.529 434.668 0 340.529 434.668
347.874 429.494 0 347.874 429.494
365.895 428.159 0 365.895 428.159
374.676 430.406 0 374.676 430.406
332.632 456.844 0 332.632 456.844
365.895 428.159 0 365.895 428.159
332.632 456.844 0 332.632 456.844
356.792 427.629 0 356.792 427.629
332.632 456.844 0 332.632 456.844
374.676 430.406 0 374.676 430.406
334.932 470.497 0 334.932 470.497
374.676 430.406 0 374.676 430.406
341.633 497.245 0 341.633 497.245
338.051 484.034 0 338.051 484.034
338.051 484.034 0 338.051 484.034
334.932 470.497 0 334.932 470.497
374.676 430.406 0 374.676 430.406
347.004 509.464 0 347.004 509.464
341.633 497.245 0 341.633 497.245
436.435 494.257 0 436.435 494.257
424.507 518.195 0 424.507 518.195
364.943 529.437 0 364.943 529.437
355.06 520.173 0 355.06 520.173
431.891 506.939 0 431.891 506.939
355.06 520.173 0 355.06 520.173
347.004 509.464 0 347.004 509.464
364.943 529.437 0 364.943 529.437
390.26 537.902 0 390.26 537.902
376.685 536.233 0 376.685 536.233
341.633 497.245 0 341.633 497.245
374.676 430.406 0 374.676 430.406
399.326 429.683 0 399.326 429.683
442.942 452.724 0 442.942 452.724
399.326 429.683 0 399.326 429.683
407.941 426.704 0 407.941 426.704
442.942 452.724 0 442.942 452.724
407.941 426.704 0 407.941 426.704
417.02 425.441 0 417.02 425.441
433.981 431.036 0 433.981 431.036
442.942 452.724 0 442.942 452.724
417.02 425.441 0 417.02 425.441
441.498 466.721 0 441.498 466.721
399.326 429.683 0 399.326 429.683
442.942 452.724 0 442.942 452.724
417.02 425.441 0 417.02 425.441
426.129 426.535 0 426.129 426.535
433.981 431.036 0 433.981 431.036
399.326 429.683 0 399.326 429.683
441.498 466.721 0 441.498 466.721
439.203 480.644 0 439.203 480.644
390.26 537.902 0 390.26 537.902
415.132 528.033 0 415.132 528.033
403.777 535.499 0 403.777 535.499
390.26 537.902 0 390.26 537.902
364.943 529.437 0 364.943 529.437
415.132 528.033 0 415.132 528.033
364.943 529.437 0 364.943 529.437
424.507 518.195 0 424.507 518.195
415.132 528.033 0 415.132 528.033
355.06 520.173 0 355.06 520.173
431.891 506.939 0 431.891 506.939
424.507 518.195 0 424.507 518.195
431.891 506.939 0 431.891 506.939
347.004 509.464 0 347.004 509.464
436.435 494.257 0 436.435 494.257
399.326 429.683 0 399.326 429.683
439.203 480.644 0 439.203 480.644
436.435 494.257 0 436.435 494.257
399.326 429.683 0 399.326 429.683
436.435 494.257 0 436.435 494.257
341.633 497.245 0 341.633 497.245
3 0 1 2
3 3 4 5
3 6 7 8
3 9 10 11
3 12 13 14
3 15 16 17
3 18 19 20
3 21 22 23
3 24 25 26
3 27 28 29
3 30 31 32
3 33 34 35
3 36 37 38
3 39 40 41
3 42 43 44
3 45 46 47
3 48 49 50
3 51 52 53
3 54 55 56
3 57 58 59
3 60 61 62
3 63 64 65
3 66 67 68
3 69 70 71
3 72 73 74
