ply
format ascii 1.0
element vertex 27
property float x
property float y
property float z
property float u
property float v
end_header
248.1 223.122 0 248.1 223.122
236.201 220.701 0 236.201 220.701
225.652 214.744 0 225.652 214.744
216.054 207.197 0 216.054 207.197
208.076 197.836 0 208.076 197.836
203.232 186.29 0 203.232 186.29
200.963 173.524 0 200.963 173.524
200.05 160.495 0 200.05 160.495
199.973 147.423 0 199.973 147.423
213.731 128.55 0 213.731 128.55
221.173 124.874 0 221.173 124.874
229.701 124.804 0 229.701 124.804
237.917 127.268 0 237.917 127.268
245.55 131.246 0 245.55 131.246
268.246 135.206 0 268.246 135.206
275.529 133.83 0 275.529 133.83
282.98 133.74 0 282.98 133.74
290.098 135.77 0 290.098 135.77
295.291 140.765 0 295.291 140.765
302.389 159.68 0 302.389 159.68
300.488 170.436 0 300.488 170.436
297.531 181.008 0 297.531 181.008
293.289 191.239 0 293.289 191.239
287.167 200.8 0 287.167 200.8
279.317 209.28 0 279.317 209.28
270.179 216.445 0 270.179 216.445
259.812 221.82 0 259.812 221.82
