ply
format ascii 1.0
element vertex 27
property float x
property float y
property float z
property float u
property float v
end_header
583.579 244.162 0 583.579 244.162
571.153 244.791 0 571.153 244.791
559.261 241.543 0 559.261 241.543
548.349 235.861 0 548.349 235.861
539.709 227.047 0 539.709 227.047
534.485 214.907 0 534.485 214.907
530.838 201.197 0 530.838 201.197
527.538 187.072 0 527.538 187.072
524.958 172.85 0 524.958 172.85
527.84 154.432 0 527.84 154.432
533.112 148.79 0 533.112 148.79
540.268 145.708 0 540.268 145.708
548.073 144.906 0 548.073 144.906
555.969 145.732 0 555.969 145.732
582.959 142.198 0 582.959 142.198
590.458 139.474 0 590.458 139.474
598.465 138.122 0 598.465 138.122
606.574 138.746 0 606.574 138.746
613.942 142.074 0 613.942 142.074
636.184 155.363 0 636.184 155.363
637.608 168.939 0 637.608 168.939
638.31 182.589 0 638.31 182.589
636.749 196.263 0 636.749 196.263
631.551 209.609 0 631.551 209.609
622.438 221.578 0 622.438 221.578
610.978 231.575 0 610.978 231.575
598.188 239.787 0 598.188 239.787
