ply
format ascii 1.0
element vertex 27
property float x
property float y
property float z
property float u
property float v
end_header
654.764 324.791 0 654.764 324.791
644.925 322.427 0 644.925 322.427
636.274 316.85 0 636.274 316.85
629.077 309.33 0 629.077 309.33
624.02 300.013 0 624.02 300.013
621.592 289.424 0 621.592 289.424
620.32 278.71 0 620.32 278.71
619.419 268.121 0 619.419 268.121
619.17 257.506 0 619.17 257.506
624.314 245.701 0 624.314 245.701
629.094 242.011 0 629.094 242.011
635.263 240.922 0 635.263 240.922
641.577 241.887 0 641.577 241.887
647.627 244.1 0 647.627 244.1
670.228 245.07 0 670.228 245.07
676.601 243.316 0 676.601 243.316
683.216 242.826 0 683.216 242.826
689.617 244.279 0 689.617 244.279
694.651 248.184 0 694.651 248.184
703.631 260.153 0 703.631 260.153
702.373 270.94 0 702.373 270.94
700.405 281.615 0 700.405 281.615
697.488 292.335 0 697.488 292.335
692.743 302.753 0 692.743 302.753
685.355 311.644 0 685.355 311.644
676.209 318.518 0 676.209 318.518
665.929 323.379 0 665.929 323.379
