ply
format ascii 1.0
element vertex 66
property float x
property float y
property float z
property float u
property float v
element face 91
property list uchar int vertex_indices
end_header
219.3 264.715 0 219.3 264.715
220.058 275.583 0 220.058 275.583
221.585 286.382 0 221.585 286.382
223.442 297.089 0 223.442 297.089
226.197 307.376 0 226.197 307.376
231.143 316.48 0 231.143 316.48
237.971 324.138 0 237.971 324.138
246.25 330.046 0 246.25 330.046
256.081 332.343 0 256.081 332.343
267.764 330.967 0 267.764 330.967
278.248 325.687 0 278.248 325.687
287.453 318.435 0 287.453 318.435
295.067 309.515 0 295.067 309.515
300.344 299.215 0 300.344 299.215
303.65 288.368 0 303.65 288.368
305.952 277.375 0 305.952 277.375
307.473 266.259 0 307.473 266.259
223.345 248.603 0 223.345 248.603
228.646 244.496 0 228.646 244.496
235.424 243.23 0 235.424 243.23
242.352 244.196 0 242.352 244.196
248.945 246.661 0 248.945 246.661
268.458 247.486 0 268.458 247.486
275.701 245.361 0 275.701 245.361
283.282 244.797 0 283.282 244.797
290.66 246.473 0 290.66 246.473
296.592 250.917 0 296.592 250.917
258.734 259.393 0 258.734 259.393
257.968 267.28 0 257.968 267.28
257.196 275.123 0 257.196 275.123
256.477 282.92 0 256.477 282.92
250.928 287.748 0 250.928 287.748
253.989 289.063 0 253.989 289.063
257.3 289.679 0 257.3 289.679
260.938 289.323 0 260.938 289.323
264.386 288.245 0 264.386 288.245
232.871 259.67 0 232.871 259.67
237.405 257.078 0 237.405 257.078
242.769 257.291 0 242.769 257.291
247.115 260.264 0 247.115 260.264
242.311 261.249 0 242.311 261.249
237.363 261.223 0 237.363 261.223
271.913 261.097 0 271.913 261.097
276.353 258.423 0 276.353 258.423
281.786 258.613 0 281.786 258.613
286.27 261.508 0 286.27 261.508
281.596 262.73 0 281.596 262.73
276.632 262.412 0 276.632 262.412
242.575 301.671 0 242.575 301.671
246.937 299.142 0 246.937 299.142
251.867 297.514 0 251.867 297.514
256.908 298.529 0 256.908 298.529
262.693 297.958 0 262.693 297.958
268.093 300.019 0 268.093 300.019
273.088 302.887 0 273.088 302.887
268.458 306.474 0 268.458 306.474
262.863 308.553 0 262.863 308.553
256.78 309.039 0 256.78 309.039
251.338 308.079 0 251.338 308.079
246.397 305.595 0 246.397 305.595
251.631 301.621 0 251.631 301.621
256.905 302.229 0 256.905 302.229
263.016 302.098 0 263.016 302.098
263.151 302.766 0 263.151 302.766
257.027 302.98 0 257.027 302.98
251.635 302.3 0 251.635 302.3
3 20 21 23
3 21 22 23
3 0 1 36
3 15 16 45
3 0 17 36
3 16 26 45
3 17 18 37
3 25 26 44
3 17 36 37
3 26 44 45
3 18 19 38
3 24 25 43
3 18 37 38
3 25 43 44
3 19 20 38
3 23 24 43
3 20 21 39
3 22 23 42
3 20 38 39
3 23 42 43
3 21 22 27
3 21 27 39
3 22 27 42
3 27 28 42
3 27 28 39
3 28 42 47
3 28 39 40
3 1 36 41
3 15 45 46
3 1 2 41
3 14 15 46
3 28 29 40
3 28 29 47
3 2 40 41
3 14 46 47
3 2 29 40
3 14 29 47
3 2 3 29
3 13 14 29
3 29 30 31
3 29 30 35
3 3 29 31
3 13 29 35
3 30 32 33
3 30 33 34
3 30 31 32
3 30 34 35
3 3 4 31
3 12 13 35
3 4 5 48
3 11 12 54
3 5 6 48
3 10 11 54
3 6 48 59
3 10 54 55
3 6 7 59
3 9 10 55
3 7 58 59
3 9 55 56
3 8 57 58
3 8 56 57
3 7 8 58
3 8 9 56
3 4 31 48
3 12 35 54
3 31 48 49
3 35 53 54
3 31 49 50
3 35 52 53
3 31 32 50
3 34 35 52
3 32 33 50
3 33 34 52
3 33 50 51
3 33 51 52
3 48 49 60
3 49 60 50
3 50 60 61
3 50 51 61
3 51 52 61
3 61 62 52
3 52 53 62
3 53 54 62
3 54 55 63
3 55 56 63
3 56 63 64
3 56 57 64
3 64 65 57
3 57 58 65
3 58 59 65
3 48 59 65
