ply
format ascii 1.0
element vertex 27
property float x
property float y
property float z
property float u
property float v
end_header
256.054 332.379 0 256.054 332.379
246.203 330.036 0 246.203 330.036
237.914 324.071 0 237.914 324.071
231.089 316.35 0 231.089 316.35
226.145 307.189 0 226.145 307.189
223.386 296.871 0 223.386 296.871
221.533 286.165 0 221.533 286.165
220.02 275.379 0 220.02 275.379
219.281 264.525 0 219.281 264.525
223.39 248.575 0 223.39 248.575
228.67 244.463 0 228.67 244.463
235.437 243.19 0 235.437 243.19
242.359 244.15 0 242.359 244.15
248.946 246.608 0 248.946 246.608
268.64 247.425 0 268.64 247.425
275.909 245.316 0 275.909 245.316
283.507 244.778 0 283.507 244.778
290.884 246.505 0 290.884 246.505
296.786 251.002 0 296.786 251.002
307.521 266.154 0 307.521 266.154
305.972 277.301 0 305.972 277.301
303.647 288.324 0 303.647 288.324
300.332 299.207 0 300.332 299.207
295.062 309.55 0 295.062 309.55
287.444 318.49 0 287.444 318.49
278.226 325.742 0 278.226 325.742
267.732 331.011 0 267.732 331.011
