ply
format ascii 1.0
element vertex 75
property float x
property float y
property float z
element face 25
property list uchar int vertex_indices
end_header
235.218 243.291 0
219.235 262.809 0
223.616 248.406 0
235.218 243.291 0
223.616 248.406 0
228.699 244.527 0
241.924 244.202 0
248.342 246.556 0
219.235 262.809 0
241.924 244.202 0
219.235 262.809 0
235.218 243.291 0
219.235 262.809 0
248.342 246.556 0
219.916 273.891 0
221.354 284.905 0
268.393 247.46 0
223.144 295.929 0
221.354 284.905 0
219.916 273.891 0
248.342 246.556 0
237.888 324.034 0
230.867 316.182 0
278.834 325.208 0
225.843 306.692 0
278.834 325.208 0
230.867 316.182 0
237.888 324.034 0
256.279 332.521 0
246.356 330.056 0
225.843 306.692 0
223.144 295.929 0
288.184 317.571 0
268.393 247.46 0
221.354 284.905 0
248.342 246.556 0
295.456 250.28 0
268.393 247.46 0
275.324 245.393 0
295.456 250.28 0
275.324 245.393 0
282.581 244.798 0
295.456 250.28 0
306.334 275.271 0
268.393 247.46 0
307.563 264.07 0
306.334 275.271 0
295.456 250.28 0
295.456 250.28 0
282.581 244.798 0
289.664 246.261 0
268.393 247.46 0
306.334 275.271 0
304.288 286.353 0
237.888 324.034 0
268.175 330.814 0
256.279 332.521 0
278.834 325.208 0
268.175 330.814 0
237.888 324.034 0
225.843 306.692 0
288.184 317.571 0
278.834 325.208 0
223.144 295.929 0
295.864 308.151 0
288.184 317.571 0
301.107 297.41 0
295.864 308.151 0
268.393 247.46 0
268.393 247.46 0
304.288 286.353 0
301.107 297.41 0
268.393 247.46 0
295.864 308.151 0
223.144 295.929 0
3 0 1 2
3 3 4 5
3 6 7 8
3 9 10 11
3 12 13 14
3 15 16 17
3 18 19 20
3 21 22 23
3 24 25 26
3 27 28 29
3 30 31 32
3 33 34 35
3 36 37 38
3 39 40 41
3 42 43 44
3 45 46 47
3 48 49 50
3 51 52 53
3 54 55 56
3 57 58 59
3 60 61 62
3 63 64 65
3 66 67 68
3 69 70 71
3 72 73 74
