ply
format ascii 1.0
element vertex 27
property float x
property float y
property float z
property float u
property float v
end_header
256.081 332.343 0 256.081 332.343
246.25 330.046 0 246.25 330.046
237.971 324.138 0 237.971 324.138
231.143 316.48 0 231.143 316.48
226.197 307.376 0 226.197 307.376
223.442 297.089 0 223.442 297.089
221.585 286.382 0 221.585 286.382
220.058 275.583 0 220.058 275.583
219.3 264.715 0 219.3 264.715
223.345 248.603 0 223.345 248.603
228.646 244.496 0 228.646 244.496
235.424 243.23 0 235.424 243.23
242.352 244.196 0 242.352 244.196
248.945 246.661 0 248.945 246.661
268.458 247.486 0 268.458 247.486
275.701 245.361 0 275.701 245.361
283.282 244.797 0 283.282 244.797
290.66 246.473 0 290.66 246.473
296.592 250.917 0 296.592 250.917
307.473 266.259 0 307.473 266.259
305.952 277.375 0 305.952 277.375
303.65 288.368 0 303.65 288.368
300.344 299.215 0 300.344 299.215
295.067 309.515 0 295.067 309.515
287.453 318.435 0 287.453 318.435
278.248 325.687 0 278.248 325.687
267.764 330.967 0 267.764 330.967
