ply
format ascii 1.0
element vertex 225
property float x
property float y
property float z
element face 75
property list uchar int vertex_indices
end_header
235.218 243.291 0
219.235 262.809 0
223.616 248.406 0
235.218 243.291 0
223.616 248.406 0
228.699 244.527 0
241.924 244.202 0
248.342 246.556 0
219.235 262.809 0
241.924 244.202 0
219.235 262.809 0
235.218 243.291 0
219.235 262.809 0
248.342 246.556 0
219.916 273.891 0
221.354 284.905 0
268.393 247.46 0
223.144 295.929 0
221.354 284.905 0
219.916 273.891 0
248.342 246.556 0
237.888 324.034 0
230.867 316.182 0
278.834 325.208 0
225.843 306.692 0
278.834 325.208 0
230.867 316.182 0
237.888 324.034 0
256.279 332.521 0
246.356 330.056 0
225.843 306.692 0
223.144 295.929 0
288.184 317.571 0
268.393 247.46 0
221.354 284.905 0
248.342 246.556 0
295.456 250.28 0
268.393 247.46 0
275.324 245.393 0
295.456 250.28 0
275.324 245.393 0
282.581 244.798 0
295.456 250.28 0
306.334 275.271 0
268.393 247.46 0
307.563 264.07 0
306.334 275.271 0
295.456 250.28 0
295.456 250.28 0
282.581 244.798 0
289.664 246.261 0
268.393 247.46 0
306.334 275.271 0
304.288 286.353 0
237.888 324.034 0
268.175 330.814 0
256.279 332.521 0
278.834 325.208 0
268.175 330.814 0
237.888 324.034 0
225.843 306.692 0
288.184 317.571 0
278.834 325.208 0
223.144 295.929 0
295.864 308.151 0
288.184 317.571 0
301.107 297.41 0
295.864 308.151 0
268.393 247.46 0
268.393 247.46 0
304.288 286.353 0
301.107 297.41 0
268.393 247.46 0
295.864 308.151 0
223.144 295.929 0
641.679 241.964 0
619.288 257.54 0
624.653 245.553 0
635.478 240.988 0
624.653 245.553 0
629.407 242.005 0
641.679 241.964 0
647.62 244.16 0
619.288 257.54 0
641.679 241.964 0
624.653 245.553 0
635.478 240.988 0
619.288 257.54 0
647.62 244.16 0
619.529 268.186 0
620.432 278.81 0
669.955 245.127 0
621.731 289.536 0
620.432 278.81 0
619.529 268.186 0
647.62 244.16 0
636.374 316.867 0
629.207 309.381 0
676.229 318.39 0
624.167 300.105 0
676.229 318.39 0
629.207 309.381 0
636.374 316.867 0
665.976 323.318 0
644.981 322.43 0
624.167 300.105 0
621.731 289.536 0
676.229 318.39 0
669.955 245.127 0
620.432 278.81 0
647.62 244.16 0
702.31 270.914 0
669.955 245.127 0
676.155 243.377 0
693.912 247.817 0
676.155 243.377 0
682.606 242.843 0
693.912 247.817 0
702.31 270.914 0
676.155 243.377 0
703.484 260.17 0
702.31 270.914 0
693.912 247.817 0
693.912 247.817 0
682.606 242.843 0
688.883 244.144 0
669.955 245.127 0
702.31 270.914 0
700.401 281.548 0
644.981 322.43 0
665.976 323.318 0
654.791 324.777 0
676.229 318.39 0
665.976 323.318 0
636.374 316.867 0
621.731 289.536 0
685.337 311.47 0
676.229 318.39 0
621.731 289.536 0
692.71 302.579 0
685.337 311.47 0
697.484 292.212 0
692.71 302.579 0
669.955 245.127 0
669.955 245.127 0
700.401 281.548 0
697.484 292.212 0
669.955 245.127 0
692.71 302.579 0
621.731 289.536 0
90.6626 122.031 0
85.0267 137.876 0
84.2886 129.643 0
99.6477 117.385 0
90.6626 122.031 0
94.5354 118.7 0
104.983 117.934 0
110.086 119.651 0
90.6626 122.031 0
104.983 117.934 0
90.6626 122.031 0
99.6477 117.385 0
85.0267 137.876 0
90.6626 122.031 0
110.086 119.651 0
110.086 119.651 0
88.117 154.331 0
86.197 146.075 0
86.197 146.075 0
85.0267 137.876 0
110.086 119.651 0
91.3695 162.331 0
88.117 154.331 0
141.539 153.039 0
91.3695 162.331 0
139.183 160.683 0
96.4038 169.214 0
135.517 167.821 0
102.636 174.791 0
96.4038 169.214 0
109.558 179.143 0
102.636 174.791 0
130.639 173.968 0
88.117 154.331 0
110.086 119.651 0
141.539 153.039 0
144.037 130.746 0
124.133 120.201 0
128.496 118.696 0
140.678 122.085 0
128.496 118.696 0
133.071 118.209 0
140.678 122.085 0
144.037 130.746 0
128.496 118.696 0
143.755 138.146 0
124.133 120.201 0
144.037 130.746 0
133.071 118.209 0
137.443 119.225 0
140.678 122.085 0
124.133 120.201 0
143.755 138.146 0
142.927 145.511 0
109.558 179.143 0
124.629 178.819 0
117.45 180.899 0
109.558 179.143 0
130.639 173.968 0
124.629 178.819 0
139.183 160.683 0
135.517 167.821 0
96.4038 169.214 0
102.636 174.791 0
135.517 167.821 0
130.639 173.968 0
141.539 153.039 0
139.183 160.683 0
91.3695 162.331 0
124.133 120.201 0
142.927 145.511 0
141.539 153.039 0
110.086 119.651 0
124.133 120.201 0
141.539 153.039 0
3 0 1 2
3 3 4 5
3 6 7 8
3 9 10 11
3 12 13 14
3 15 16 17
3 18 19 20
3 21 22 23
3 24 25 26
3 27 28 29
3 30 31 32
3 33 34 35
3 36 37 38
3 39 40 41
3 42 43 44
3 45 46 47
3 48 49 50
3 51 52 53
3 54 55 56
3 57 58 59
3 60 61 62
3 63 64 65
3 66 67 68
3 69 70 71
3 72 73 74
3 75 76 77
3 78 79 80
3 81 82 83
3 84 85 86
3 87 88 89
3 90 91 92
3 93 94 95
3 96 97 98
3 99 100 101
3 102 103 104
3 105 106 107
3 108 109 110
3 111 112 113
3 114 115 116
3 117 118 119
3 120 121 122
3 123 124 125
3 126 127 128
3 129 130 131
3 132 133 134
3 135 136 137
3 138 139 140
3 141 142 143
3 144 145 146
3 147 148 149
3 150 151 152
3 153 154 155
3 156 157 158
3 159 160 161
3 162 163 164
3 165 166 167
3 168 169 170
3 171 172 173
3 174 175 176
3 177 178 179
3 180 181 182
3 183 184 185
3 186 187 188
3 189 190 191
3 192 193 194
3 195 196 197
3 198 199 200
3 201 202 203
3 204 205 206
3 207 208 209
3 210 211 212
3 213 214 215
3 216 217 218
3 219 220 221
3 222 223 224
