ply
format ascii 1.0
element vertex 75
property float x
property float y
property float z
element face 25
property list uchar int vertex_indices
end_header
495.219 137.275 0
483.727 145.076 0
486.593 139.996 0
495.219 137.275 0
486.593 139.996 0
490.462 137.648 0
483.727 145.076 0
500 138.382 0
483.628 153.199 0
500 138.382 0
483.727 145.076 0
495.219 137.275 0
483.628 153.199 0
500 138.382 0
504.512 140.455 0
504.512 140.455 0
484.222 169.766 0
483.848 161.347 0
483.848 161.347 0
483.628 153.199 0
504.512 140.455 0
493.913 191.923 0
488.82 185.815 0
523.327 193.591 0
485.472 178.237 0
523.327 193.591 0
488.82 185.815 0
485.472 178.237 0
484.222 169.766 0
530.135 187.889 0
500.072 196.612 0
493.913 191.923 0
515.614 197.612 0
518.171 142.042 0
484.222 169.766 0
504.512 140.455 0
523.049 140.918 0
540.981 164.522 0
518.171 142.042 0
536.548 144.961 0
523.049 140.918 0
528.083 140.752 0
536.548 144.961 0
542.295 156.785 0
523.049 140.918 0
543.166 148.988 0
542.295 156.785 0
536.548 144.961 0
536.548 144.961 0
528.083 140.752 0
532.881 141.982 0
540.981 164.522 0
523.049 140.918 0
542.295 156.785 0
500.072 196.612 0
515.614 197.612 0
507.188 198.977 0
523.327 193.591 0
515.614 197.612 0
493.913 191.923 0
535.516 180.614 0
530.135 187.889 0
484.222 169.766 0
530.135 187.889 0
523.327 193.591 0
485.472 178.237 0
518.171 142.042 0
538.936 172.522 0
535.516 180.614 0
518.171 142.042 0
540.981 164.522 0
538.936 172.522 0
518.171 142.042 0
535.516 180.614 0
484.222 169.766 0
3 0 1 2
3 3 4 5
3 6 7 8
3 9 10 11
3 12 13 14
3 15 16 17
3 18 19 20
3 21 22 23
3 24 25 26
3 27 28 29
3 30 31 32
3 33 34 35
3 36 37 38
3 39 40 41
3 42 43 44
3 45 46 47
3 48 49 50
3 51 52 53
3 54 55 56
3 57 58 59
3 60 61 62
3 63 64 65
3 66 67 68
3 69 70 71
3 72 73 74
