ply
format ascii 1.0
element vertex 27
property float x
property float y
property float z
property float u
property float v
end_header
506.83 198.991 0 506.83 198.991
499.708 196.479 0 499.708 196.479
493.616 191.607 0 493.616 191.607
488.618 185.344 0 488.618 185.344
485.351 177.672 0 485.351 177.672
484.117 169.205 0 484.117 169.205
483.778 160.834 0 483.778 160.834
483.623 152.751 0 483.623 152.751
483.797 144.695 0 483.797 144.695
486.743 139.938 0 486.743 139.938
490.608 137.604 0 490.608 137.604
495.359 137.254 0 495.359 137.254
500.129 138.385 0 500.129 138.385
504.617 140.481 0 504.617 140.481
518.244 142.038 0 518.244 142.038
523.187 140.923 0 523.187 140.923
528.277 140.79 0 528.277 140.79
533.108 142.096 0 533.108 142.096
536.766 145.159 0 536.766 145.159
543.215 148.905 0 543.215 148.905
542.256 156.802 0 542.256 156.802
540.872 164.64 0 540.872 164.64
538.784 172.732 0 538.784 172.732
535.336 180.883 0 535.336 180.883
529.902 188.15 0 529.902 188.15
523.022 193.789 0 523.022 193.789
515.264 197.722 0 515.264 197.722
