ply
format ascii 1.0
element vertex 75
property float x
property float y
property float z
element face 25
property list uchar int vertex_indices
end_header
676.943 84.5538 0
671.032 101.118 0
670.016 92.5409 0
685.987 82.8523 0
676.943 84.5538 0
681.175 82.7872 0
671.032 101.118 0
685.987 82.8523 0
690.655 83.9053 0
676.943 84.5538 0
685.987 82.8523 0
671.032 101.118 0
671.032 101.118 0
690.655 83.9053 0
695.077 85.5925 0
695.077 85.5925 0
674.56 118.23 0
672.559 109.634 0
672.559 109.634 0
671.032 101.118 0
695.077 85.5925 0
682.606 135.014 0
677.724 126.958 0
728.872 124.507 0
725.3 133.168 0
688.859 141.916 0
682.606 135.014 0
677.724 126.958 0
674.56 118.23 0
730.676 115.342 0
720.069 140.74 0
696.319 147.248 0
688.859 141.916 0
674.56 118.23 0
695.077 85.5925 0
730.676 115.342 0
732.459 97.6726 0
710.778 84.965 0
714.88 82.9238 0
732.459 97.6726 0
714.88 82.9238 0
719.247 81.5018 0
723.819 81.0414 0
727.927 82.4304 0
732.635 88.8979 0
732.459 97.6726 0
719.247 81.5018 0
732.635 88.8979 0
732.635 88.8979 0
719.247 81.5018 0
723.819 81.0414 0
710.778 84.965 0
732.459 97.6726 0
731.718 106.444 0
696.319 147.248 0
713.317 146.649 0
704.983 149.131 0
696.319 147.248 0
720.069 140.74 0
713.317 146.649 0
728.872 124.507 0
725.3 133.168 0
682.606 135.014 0
725.3 133.168 0
720.069 140.74 0
688.859 141.916 0
730.676 115.342 0
728.872 124.507 0
677.724 126.958 0
710.778 84.965 0
731.718 106.444 0
730.676 115.342 0
710.778 84.965 0
730.676 115.342 0
695.077 85.5925 0
3 0 1 2
3 3 4 5
3 6 7 8
3 9 10 11
3 12 13 14
3 15 16 17
3 18 19 20
3 21 22 23
3 24 25 26
3 27 28 29
3 30 31 32
3 33 34 35
3 36 37 38
3 39 40 41
3 42 43 44
3 45 46 47
3 48 49 50
3 51 52 53
3 54 55 56
3 57 58 59
3 60 61 62
3 63 64 65
3 66 67 68
3 69 70 71
3 72 73 74
