ply
format ascii 1.0
element vertex 27
property float x
property float y
property float z
property float u
property float v
end_header
705.473 149.332 0 705.473 149.332
696.796 147.37 0 696.796 147.37
689.217 141.985 0 689.217 141.985
682.81 134.903 0 682.81 134.903
677.811 126.468 0 677.811 126.468
674.577 117.285 0 674.577 117.285
672.438 108.443 0 672.438 108.443
670.74 99.8084 0 670.74 99.8084
669.558 91.12 0 669.558 91.12
676.555 84.4303 0 676.555 84.4303
680.705 82.7007 0 680.705 82.7007
685.486 82.7135 0 685.486 82.7135
690.176 83.7682 0 690.176 83.7682
694.651 85.4777 0 694.651 85.4777
710.808 84.8195 0 710.808 84.8195
714.678 82.7863 0 714.678 82.7863
718.802 81.3196 0 718.802 81.3196
723.105 80.7304 0 723.105 80.7304
726.968 81.8432 0 726.968 81.8432
732.052 86.9456 0 732.052 86.9456
732.042 95.4368 0 732.042 95.4368
731.388 103.921 0 731.388 103.921
730.367 112.725 0 730.367 112.725
728.608 122.173 0 728.608 122.173
725.274 131.42 0 725.274 131.42
720.312 139.638 0 720.312 139.638
713.745 146.189 0 713.745 146.189
