ply
format ascii 1.0
element vertex 75
property float x
property float y
property float z
element face 25
property list uchar int vertex_indices
end_header
270.183 109.692 0
264.986 124.12 0
264.872 115.645 0
279.458 107.465 0
270.183 109.692 0
274.496 107.574 0
264.986 124.12 0
279.458 107.465 0
284.313 108.527 0
270.183 109.692 0
279.458 107.465 0
264.986 124.12 0
264.986 124.12 0
284.313 108.527 0
288.935 110.289 0
288.935 110.289 0
266.541 141.087 0
265.558 132.603 0
265.558 132.603 0
264.986 124.12 0
288.935 110.289 0
268.54 149.422 0
266.541 141.087 0
302.965 110.966 0
268.54 149.422 0
316.142 159.429 0
272.529 156.936 0
309.532 165.12 0
278.197 163.184 0
272.529 156.936 0
285.05 168.022 0
278.197 163.184 0
293.132 170.012 0
266.541 141.087 0
288.935 110.289 0
302.965 110.966 0
326.968 126.834 0
302.965 110.966 0
307.819 109.81 0
326.968 126.834 0
307.819 109.81 0
312.81 109.371 0
321.807 112.758 0
326.968 126.834 0
312.81 109.371 0
327.78 118.263 0
326.968 126.834 0
321.807 112.758 0
321.807 112.758 0
312.81 109.371 0
317.747 110.125 0
302.965 110.966 0
326.968 126.834 0
325.69 135.37 0
278.197 163.184 0
301.754 169.033 0
293.132 170.012 0
309.532 165.12 0
301.754 169.033 0
278.197 163.184 0
321.085 152.18 0
316.142 159.429 0
268.54 149.422 0
316.142 159.429 0
309.532 165.12 0
272.529 156.936 0
302.965 110.966 0
323.954 143.875 0
321.085 152.18 0
302.965 110.966 0
325.69 135.37 0
323.954 143.875 0
302.965 110.966 0
321.085 152.18 0
268.54 149.422 0
3 0 1 2
3 3 4 5
3 6 7 8
3 9 10 11
3 12 13 14
3 15 16 17
3 18 19 20
3 21 22 23
3 24 25 26
3 27 28 29
3 30 31 32
3 33 34 35
3 36 37 38
3 39 40 41
3 42 43 44
3 45 46 47
3 48 49 50
3 51 52 53
3 54 55 56
3 57 58 59
3 60 61 62
3 63 64 65
3 66 67 68
3 69 70 71
3 72 73 74
