ply
format ascii 1.0
element vertex 27
property float x
property float y
property float z
property float u
property float v
end_header
292.593 169.916 0 292.593 169.916
284.619 167.855 0 284.619 167.855
277.833 163.069 0 277.833 163.069
272.18 156.894 0 272.18 156.894
268.27 149.381 0 268.27 149.381
266.438 140.94 0 266.438 140.94
265.542 132.28 0 265.542 132.28
264.978 123.605 0 264.978 123.605
264.861 114.918 0 264.861 114.918
269.306 107.113 0 269.306 107.113
273.516 104.181 0 273.516 104.181
278.728 103.423 0 278.728 103.423
283.979 104.333 0 283.979 104.333
288.948 106.294 0 288.948 106.294
303.063 107.923 0 303.063 107.923
308.236 106.852 0 308.236 106.852
313.54 106.822 0 313.54 106.822
318.577 108.326 0 318.577 108.326
322.375 111.759 0 322.375 111.759
327.843 119.441 0 327.843 119.441
326.881 127.758 0 326.881 127.758
325.428 136.009 0 325.428 136.009
323.517 144.262 0 323.517 144.262
320.545 152.396 0 320.545 152.396
315.634 159.63 0 315.634 159.63
309.037 165.296 0 309.037 165.296
301.221 169.084 0 301.221 169.084
