ply
format ascii 1.0
element vertex 27
property float x
property float y
property float z
property float u
property float v
end_header
117.18 181.005 0 117.18 181.005
109.308 179.162 0 109.308 179.162
102.447 174.71 0 102.447 174.71
96.2562 169.061 0 96.2562 169.061
91.2971 162.087 0 91.2971 162.087
88.1094 154.036 0 88.1094 154.036
86.2376 145.754 0 86.2376 145.754
85.1151 137.548 0 85.1151 137.548
84.4175 129.313 0 84.4175 129.313
90.7662 121.864 0 90.7662 121.864
94.6636 118.58 0 94.6636 118.58
99.7855 117.294 0 99.7855 117.294
105.125 117.868 0 105.125 117.868
110.224 119.605 0 110.224 119.605
124.09 120.209 0 124.09 120.209
128.474 118.72 0 128.474 118.72
133.069 118.249 0 133.069 118.249
137.454 119.273 0 137.454 119.273
140.714 122.111 0 140.714 122.111
144.13 130.694 0 144.13 130.694
143.806 138.125 0 143.806 138.125
142.948 145.52 0 142.948 145.52
141.524 153.09 0 141.524 153.09
139.112 160.777 0 139.112 160.777
135.402 167.96 0 135.402 167.96
130.456 174.1 0 130.456 174.1
124.399 178.948 0 124.399 178.948
