ply
format ascii 1.0
element vertex 27
property float x
property float y
property float z
property float u
property float v
end_header
269.295 95.3166 0 269.295 95.3166
262.432 94.3423 0 262.432 94.3423
256.532 91.175 0 256.532 91.175
251.548 86.9296 0 251.548 86.9296
247.855 81.7085 0 247.855 81.7085
245.801 75.5341 0 245.801 75.5341
244.832 68.6712 0 244.832 68.6712
244.406 61.4937 0 244.406 61.4937
244.412 54.3169 0 244.412 54.3169
249.808 42.0103 0 249.808 42.0103
253.294 39.2158 0 253.294 39.2158
257.635 38.1701 0 257.635 38.1701
262.068 38.4792 0 262.068 38.4792
266.305 39.6911 0 266.305 39.6911
278.191 40.371 0 278.191 40.371
282.665 39.6116 0 282.665 39.6116
287.252 39.7771 0 287.252 39.7771
291.603 41.2987 0 291.603 41.2987
294.92 44.4773 0 294.92 44.4773
300.7 56.9313 0 300.7 56.9313
299.899 64.0482 0 299.899 64.0482
298.658 71.1227 0 298.658 71.1227
296.738 77.8155 0 296.738 77.8155
293.601 83.7333 0 293.601 83.7333
288.922 88.5825 0 288.922 88.5825
283.129 92.3594 0 283.129 92.3594
276.582 94.9943 0 276.582 94.9943
