ply
format ascii 1.0
element vertex 27
property float x
property float y
property float z
property float u
property float v
end_header
697.383 187.403 0 697.383 187.403
690.761 186.176 0 690.761 186.176
684.604 182.786 0 684.604 182.786
679.206 177.966 0 679.206 177.966
674.988 171.699 0 674.988 171.699
672.355 164.508 0 672.355 164.508
670.551 157.551 0 670.551 157.551
669.081 150.913 0 669.081 150.913
668.039 144.201 0 668.039 144.201
671.115 140.74 0 671.115 140.74
673.967 138.557 0 673.967 138.557
677.764 137.79 0 677.764 137.79
681.757 138.091 0 681.757 138.091
685.704 139.031 0 685.704 139.031
698.784 137.8 0 698.784 137.8
702.752 136.051 0 702.752 136.051
706.937 134.952 0 706.937 134.952
711.173 134.991 0 711.173 134.991
714.808 136.633 0 714.808 136.633
721.932 138.933 0 721.932 138.933
722.219 145.885 0 722.219 145.885
722.068 152.855 0 722.068 152.855
721.365 160.203 0 721.365 160.203
719.448 167.917 0 719.448 167.917
715.616 174.917 0 715.616 174.917
710.466 180.638 0 710.466 180.638
704.328 185.062 0 704.328 185.062
