ply
format ascii 1.0
element vertex 27
property float x
property float y
property float z
property float u
property float v
end_header
559.236 132.956 0 559.236 132.956
551.675 130.762 0 551.675 130.762
545.185 126.116 0 545.185 126.116
539.991 119.943 0 539.991 119.943
536.563 112.5 0 536.563 112.5
534.89 104.639 0 534.89 104.639
534.156 96.9255 0 534.156 96.9255
533.882 89.3736 0 533.882 89.3736
534.118 81.7594 0 534.118 81.7594
539.687 76.7487 0 539.687 76.7487
543.078 74.6565 0 543.078 74.6565
547.149 74.0822 0 547.149 74.0822
551.287 74.6294 0 551.287 74.6294
555.219 75.9841 0 555.219 75.9841
568.487 76.3126 0 568.487 76.3126
573.116 75.0645 0 573.116 75.0645
577.885 74.7997 0 577.885 74.7997
582.456 75.9691 0 582.456 75.9691
586.054 78.7901 0 586.054 78.7901
591.987 84.6954 0 591.987 84.6954
591.139 92.8533 0 591.139 92.8533
589.888 100.964 0 589.888 100.964
588.186 109.092 0 588.186 109.092
585.375 116.934 0 585.375 116.934
580.588 123.592 0 580.588 123.592
574.292 128.637 0 574.292 128.637
567.097 132.095 0 567.097 132.095
