ply
format ascii 1.0
element vertex 75
property float x
property float y
property float z
element face 25
property list uchar int vertex_indices
end_header
671.349 140.488 0
669.106 151.173 0
668.132 144.496 0
677.891 137.683 0
671.349 140.488 0
674.176 138.386 0
681.775 138.011 0
669.106 151.173 0
677.891 137.683 0
677.891 137.683 0
669.106 151.173 0
671.349 140.488 0
669.106 151.173 0
681.775 138.011 0
685.599 138.964 0
685.599 138.964 0
672.346 164.639 0
670.53 157.771 0
670.53 157.771 0
669.106 151.173 0
685.599 138.964 0
679.187 177.908 0
675.015 171.697 0
715.305 175.436 0
684.491 182.786 0
679.187 177.908 0
710.167 181.022 0
675.015 171.697 0
672.346 164.639 0
698.865 137.713 0
684.491 182.786 0
704.085 185.34 0
690.569 186.285 0
672.346 164.639 0
685.599 138.964 0
698.865 137.713 0
702.785 135.988 0
721.933 153.699 0
698.865 137.713 0
714.706 136.628 0
702.785 135.988 0
706.92 134.915 0
714.706 136.628 0
722.135 146.697 0
702.785 135.988 0
721.915 139.71 0
722.135 146.697 0
714.706 136.628 0
714.706 136.628 0
706.92 134.915 0
711.107 134.978 0
721.933 153.699 0
702.785 135.988 0
722.135 146.697 0
690.569 186.285 0
704.085 185.34 0
697.19 187.556 0
710.167 181.022 0
704.085 185.34 0
684.491 182.786 0
679.187 177.908 0
715.305 175.436 0
710.167 181.022 0
715.305 175.436 0
698.865 137.713 0
719.174 168.611 0
721.166 161.02 0
719.174 168.611 0
698.865 137.713 0
698.865 137.713 0
721.933 153.699 0
721.166 161.02 0
675.015 171.697 0
698.865 137.713 0
715.305 175.436 0
3 0 1 2
3 3 4 5
3 6 7 8
3 9 10 11
3 12 13 14
3 15 16 17
3 18 19 20
3 21 22 23
3 24 25 26
3 27 28 29
3 30 31 32
3 33 34 35
3 36 37 38
3 39 40 41
3 42 43 44
3 45 46 47
3 48 49 50
3 51 52 53
3 54 55 56
3 57 58 59
3 60 61 62
3 63 64 65
3 66 67 68
3 69 70 71
3 72 73 74
