ply
format ascii 1.0
element vertex 27
property float x
property float y
property float z
property float u
property float v
end_header
419.1 150.672 0 419.1 150.672
412.339 150.263 0 412.339 150.263
406.379 147.564 0 406.379 147.564
401.218 143.801 0 401.218 143.801
397.237 139.016 0 397.237 139.016
394.7 133.342 0 394.7 133.342
393.136 126.998 0 393.136 126.998
392.056 120.282 0 392.056 120.282
391.484 113.541 0 391.484 113.541
395.285 101.683 0 395.285 101.683
398.472 99.231 0 398.472 99.231
402.334 98.2271 0 402.334 98.2271
406.289 98.2202 0 406.289 98.2202
410.102 98.9753 0 410.102 98.9753
422.563 97.9704 0 422.563 97.9704
426.857 96.6804 0 426.857 96.6804
431.356 96.2505 0 431.356 96.2505
435.823 97.122 0 435.823 97.122
439.615 99.6581 0 439.615 99.6581
446.845 110.724 0 446.845 110.724
446.654 118.035 0 446.654 118.035
446.112 125.36 0 446.112 125.36
444.988 132.332 0 444.988 132.332
442.544 138.453 0 442.544 138.453
438.175 143.395 0 438.175 143.395
432.524 147.192 0 432.524 147.192
426.165 149.939 0 426.165 149.939
