ply
format ascii 1.0
element vertex 75
property float x
property float y
property float z
property float u
property float v
element face 25
property list uchar int vertex_indices
end_header
261.895 38.5146 0 261.895 38.5146
244.401 52.5294 0 244.401 52.5294
249.789 42.0422 0 249.789 42.0422
257.484 38.1986 0 257.484 38.1986
249.789 42.0422 0 249.789 42.0422
253.193 39.2628 0 253.193 39.2628
261.895 38.5146 0 261.895 38.5146
266.131 39.7292 0 266.131 39.7292
244.401 52.5294 0 244.401 52.5294
261.895 38.5146 0 261.895 38.5146
249.789 42.0422 0 249.789 42.0422
257.484 38.1986 0 257.484 38.1986
244.401 52.5294 0 244.401 52.5294
266.131 39.7292 0 266.131 39.7292
244.359 59.9235 0 244.359 59.9235
244.743 67.3161 0 244.743 67.3161
297.375 76.2998 0 297.375 76.2998
245.676 74.4896 0 245.676 74.4896
244.743 67.3161 0 244.743 67.3161
244.359 59.9235 0 244.359 59.9235
266.131 39.7292 0 266.131 39.7292
247.695 81.1035 0 247.695 81.1035
245.676 74.4896 0 245.676 74.4896
251.481 86.7061 0 251.481 86.7061
251.481 86.7061 0 251.481 86.7061
245.676 74.4896 0 245.676 74.4896
256.675 91.1599 0 256.675 91.1599
256.675 91.1599 0 256.675 91.1599
269.785 95.4942 0 269.785 95.4942
262.791 94.4225 0 262.791 94.4225
245.676 74.4896 0 245.676 74.4896
283.822 92.0193 0 283.822 92.0193
256.675 91.1599 0 256.675 91.1599
278.226 40.4275 0 278.226 40.4275
244.743 67.3161 0 244.743 67.3161
266.131 39.7292 0 266.131 39.7292
294.622 44.1968 0 294.622 44.1968
278.226 40.4275 0 278.226 40.4275
282.61 39.6314 0 282.61 39.6314
294.622 44.1968 0 294.622 44.1968
282.61 39.6314 0 282.61 39.6314
287.104 39.729 0 287.104 39.729
294.622 44.1968 0 294.622 44.1968
300.229 62.2342 0 300.229 62.2342
278.226 40.4275 0 278.226 40.4275
300.851 55.0302 0 300.851 55.0302
300.229 62.2342 0 300.229 62.2342
294.622 44.1968 0 294.622 44.1968
294.622 44.1968 0 294.622 44.1968
287.104 39.729 0 287.104 39.729
291.366 41.1554 0 291.366 41.1554
278.226 40.4275 0 278.226 40.4275
300.229 62.2342 0 300.229 62.2342
299.162 69.4026 0 299.162 69.4026
269.785 95.4942 0 269.785 95.4942
283.822 92.0193 0 283.822 92.0193
277.169 94.9072 0 277.169 94.9072
256.675 91.1599 0 256.675 91.1599
283.822 92.0193 0 283.822 92.0193
269.785 95.4942 0 269.785 95.4942
283.822 92.0193 0 283.822 92.0193
245.676 74.4896 0 245.676 74.4896
289.686 87.9113 0 289.686 87.9113
294.342 82.6192 0 294.342 82.6192
289.686 87.9113 0 289.686 87.9113
297.375 76.2998 0 297.375 76.2998
289.686 87.9113 0 289.686 87.9113
245.676 74.4896 0 245.676 74.4896
297.375 76.2998 0 297.375 76.2998
278.226 40.4275 0 278.226 40.4275
299.162 69.4026 0 299.162 69.4026
297.375 76.2998 0 297.375 76.2998
278.226 40.4275 0 278.226 40.4275
297.375 76.2998 0 297.375 76.2998
244.743 67.3161 0 244.743 67.3161
3 0 1 2
3 3 4 5
3 6 7 8
3 9 10 11
3 12 13 14
3 15 16 17
3 18 19 20
3 21 22 23
3 24 25 26
3 27 28 29
3 30 31 32
3 33 34 35
3 36 37 38
3 39 40 41
3 42 43 44
3 45 46 47
3 48 49 50
3 51 52 53
3 54 55 56
3 57 58 59
3 60 61 62
3 63 64 65
3 66 67 68
3 69 70 71
3 72 73 74
