ply
format ascii 1.0
element vertex 75
property float x
property float y
property float z
element face 25
property list uchar int vertex_indices
end_header
405.484 98.5563 0
391.21 111.453 0
394.797 102.271 0
401.534 98.6244 0
394.797 102.271 0
397.767 99.7574 0
405.484 98.5563 0
409.344 99.2723 0
391.21 111.453 0
405.484 98.5563 0
394.797 102.271 0
401.534 98.6244 0
391.21 111.453 0
409.344 99.2723 0
391.986 118.469 0
393.221 125.43 0
421.665 98.1653 0
394.925 132.209 0
393.221 125.43 0
391.986 118.469 0
409.344 99.2723 0
397.574 138.507 0
394.925 132.209 0
401.775 143.787 0
407.224 147.772 0
401.775 143.787 0
433.835 146.02 0
401.775 143.787 0
394.925 132.209 0
433.835 146.02 0
413.416 150.551 0
407.224 147.772 0
420.254 151.027 0
409.344 99.2723 0
421.665 98.1653 0
393.221 125.43 0
438.132 99.0034 0
421.665 98.1653 0
425.775 96.7457 0
438.132 99.0034 0
425.775 96.7457 0
430.107 96.146 0
438.132 99.0034 0
446.313 113.844 0
421.665 98.1653 0
446.015 106.495 0
446.313 113.844 0
438.132 99.0034 0
438.132 99.0034 0
430.107 96.146 0
434.424 96.793 0
421.665 98.1653 0
446.313 113.844 0
446.236 121.218 0
407.224 147.772 0
427.466 149.572 0
420.254 151.027 0
433.835 146.02 0
427.466 149.572 0
407.224 147.772 0
445.485 128.489 0
439.361 141.304 0
433.835 146.02 0
443.409 135.363 0
439.361 141.304 0
445.485 128.489 0
421.665 98.1653 0
445.485 128.489 0
433.835 146.02 0
421.665 98.1653 0
446.236 121.218 0
445.485 128.489 0
433.835 146.02 0
394.925 132.209 0
421.665 98.1653 0
3 0 1 2
3 3 4 5
3 6 7 8
3 9 10 11
3 12 13 14
3 15 16 17
3 18 19 20
3 21 22 23
3 24 25 26
3 27 28 29
3 30 31 32
3 33 34 35
3 36 37 38
3 39 40 41
3 42 43 44
3 45 46 47
3 48 49 50
3 51 52 53
3 54 55 56
3 57 58 59
3 60 61 62
3 63 64 65
3 66 67 68
3 69 70 71
3 72 73 74
