ply
format ascii 1.0
element vertex 150
property float x
property float y
property float z
element face 50
property list uchar int vertex_indices
end_header
405.484 98.5563 0
391.21 111.453 0
394.797 102.271 0
401.534 98.6244 0
394.797 102.271 0
397.767 99.7574 0
405.484 98.5563 0
409.344 99.2723 0
391.21 111.453 0
405.484 98.5563 0
394.797 102.271 0
401.534 98.6244 0
391.21 111.453 0
409.344 99.2723 0
391.986 118.469 0
393.221 125.43 0
421.665 98.1653 0
394.925 132.209 0
393.221 125.43 0
391.986 118.469 0
409.344 99.2723 0
397.574 138.507 0
394.925 132.209 0
401.775 143.787 0
407.224 147.772 0
401.775 143.787 0
433.835 146.02 0
401.775 143.787 0
394.925 132.209 0
433.835 146.02 0
413.416 150.551 0
407.224 147.772 0
420.254 151.027 0
409.344 99.2723 0
421.665 98.1653 0
393.221 125.43 0
438.132 99.0034 0
421.665 98.1653 0
425.775 96.7457 0
438.132 99.0034 0
425.775 96.7457 0
430.107 96.146 0
438.132 99.0034 0
446.313 113.844 0
421.665 98.1653 0
446.015 106.495 0
446.313 113.844 0
438.132 99.0034 0
438.132 99.0034 0
430.107 96.146 0
434.424 96.793 0
421.665 98.1653 0
446.313 113.844 0
446.236 121.218 0
407.224 147.772 0
427.466 149.572 0
420.254 151.027 0
433.835 146.02 0
427.466 149.572 0
407.224 147.772 0
445.485 128.489 0
439.361 141.304 0
433.835 146.02 0
443.409 135.363 0
439.361 141.304 0
445.485 128.489 0
421.665 98.1653 0
445.485 128.489 0
433.835 146.02 0
421.665 98.1653 0
446.236 121.218 0
445.485 128.489 0
433.835 146.02 0
394.925 132.209 0
421.665 98.1653 0
545.755 74.821 0
535.706 88.7897 0
538.338 78.366 0
545.755 74.821 0
538.338 78.366 0
541.618 75.817 0
550.048 75.0444 0
554.219 76.1796 0
535.706 88.7897 0
550.048 75.0444 0
535.706 88.7897 0
545.755 74.821 0
535.706 88.7897 0
554.219 76.1796 0
536.62 96.1108 0
537.974 103.358 0
566.507 76.2233 0
539.53 110.508 0
537.974 103.358 0
536.62 96.1108 0
554.219 76.1796 0
545.411 123.08 0
541.782 117.251 0
576.497 126.829 0
550.185 127.897 0
545.411 123.08 0
576.497 126.829 0
550.185 127.897 0
562.426 132.671 0
555.842 131.544 0
581.961 121.315 0
541.782 117.251 0
539.53 110.508 0
566.507 76.2233 0
537.974 103.358 0
554.219 76.1796 0
583.721 77.9046 0
566.507 76.2233 0
570.89 74.9613 0
583.721 77.9046 0
570.89 74.9613 0
575.481 74.5941 0
583.721 77.9046 0
591.483 93.5326 0
566.507 76.2233 0
591.848 86.277 0
591.483 93.5326 0
583.721 77.9046 0
583.721 77.9046 0
575.481 74.5941 0
579.98 75.4605 0
566.507 76.2233 0
591.483 93.5326 0
590.644 100.747 0
550.185 127.897 0
570.018 131.077 0
562.426 132.671 0
576.497 126.829 0
570.018 131.077 0
550.185 127.897 0
586.299 114.916 0
581.961 121.315 0
539.53 110.508 0
581.961 121.315 0
576.497 126.829 0
541.782 117.251 0
566.507 76.2233 0
589.131 107.929 0
586.299 114.916 0
566.507 76.2233 0
590.644 100.747 0
589.131 107.929 0
566.507 76.2233 0
586.299 114.916 0
539.53 110.508 0
3 0 1 2
3 3 4 5
3 6 7 8
3 9 10 11
3 12 13 14
3 15 16 17
3 18 19 20
3 21 22 23
3 24 25 26
3 27 28 29
3 30 31 32
3 33 34 35
3 36 37 38
3 39 40 41
3 42 43 44
3 45 46 47
3 48 49 50
3 51 52 53
3 54 55 56
3 57 58 59
3 60 61 62
3 63 64 65
3 66 67 68
3 69 70 71
3 72 73 74
3 75 76 77
3 78 79 80
3 81 82 83
3 84 85 86
3 87 88 89
3 90 91 92
3 93 94 95
3 96 97 98
3 99 100 101
3 102 103 104
3 105 106 107
3 108 109 110
3 111 112 113
3 114 115 116
3 117 118 119
3 120 121 122
3 123 124 125
3 126 127 128
3 129 130 131
3 132 133 134
3 135 136 137
3 138 139 140
3 141 142 143
3 144 145 146
3 147 148 149
