ply
format ascii 1.0
element vertex 27
property float x
property float y
property float z
property float u
property float v
end_header
645.086 359.229 0 645.086 359.229
637.772 358.118 0 637.772 358.118
631.383 354.107 0 631.383 354.107
625.907 348.77 0 625.907 348.77
621.401 342.526 0 621.401 342.526
618.086 335.444 0 618.086 335.444
615.591 328.193 0 615.591 328.193
613.619 320.861 0 613.619 320.861
612.233 313.397 0 612.233 313.397
615.938 305.488 0 615.938 305.488
619.125 302.437 0 619.125 302.437
623.493 300.935 0 623.493 300.935
628.208 300.892 0 628.208 300.892
632.848 301.847 0 632.848 301.847
645.566 300.659 0 645.566 300.659
649.893 298.782 0 649.893 298.782
654.526 297.841 0 654.526 297.841
659.171 298.238 0 659.171 298.238
663.161 300.307 0 663.161 300.307
671.281 308.16 0 671.281 308.16
671.434 315.752 0 671.434 315.752
670.983 323.327 0 670.983 323.327
669.818 330.945 0 669.818 330.945
667.398 338.583 0 667.398 338.583
663.563 345.605 0 663.563 345.605
658.641 351.863 0 658.641 351.863
652.573 356.909 0 652.573 356.909
