ply
format ascii 1.0
element vertex 27
property float x
property float y
property float z
property float u
property float v
end_header
149.87 397.227 0 149.87 397.227
143.126 396.275 0 143.126 396.275
137.121 392.562 0 137.121 392.562
132.068 387.321 0 132.068 387.321
128.315 380.832 0 128.315 380.832
125.974 373.631 0 125.974 373.631
124.111 366.618 0 124.111 366.618
122.329 359.787 0 122.329 359.787
121.009 352.84 0 121.009 352.84
122.108 349.54 0 122.108 349.54
125.058 347.104 0 125.058 347.104
129.014 346.11 0 129.014 346.11
133.197 346.211 0 133.197 346.211
137.35 347.012 0 137.35 347.012
149.468 345.379 0 149.468 345.379
153.688 343.674 0 153.688 343.674
158.147 342.65 0 158.147 342.65
162.668 342.761 0 162.668 342.761
166.665 344.475 0 166.665 344.475
174.6 347.718 0 174.6 347.718
174.788 354.975 0 174.788 354.975
174.616 362.204 0 174.616 362.204
174.013 369.625 0 174.013 369.625
172.124 377.305 0 172.124 377.305
168.389 384.356 0 168.389 384.356
163.289 390.32 0 163.289 390.32
157.078 395.005 0 157.078 395.005
