ply
format ascii 1.0
element vertex 75
property float x
property float y
property float z
element face 25
property list uchar int vertex_indices
end_header
121.055 348.638 0
116.956 361.845 0
116.124 354.627 0
128.241 345.675 0
121.055 348.638 0
124.272 346.43 0
132.317 345.944 0
116.956 361.845 0
128.241 345.675 0
128.241 345.675 0
116.956 361.845 0
121.055 348.638 0
116.956 361.845 0
132.317 345.944 0
136.272 346.942 0
136.272 346.942 0
120.523 375.975 0
118.387 368.949 0
118.387 368.949 0
116.956 361.845 0
136.272 346.942 0
120.523 375.975 0
136.272 346.942 0
123.667 382.795 0
160.941 392.269 0
133.741 393.663 0
128.167 388.769 0
147.814 345.926 0
128.167 388.769 0
123.667 382.795 0
133.741 393.663 0
154.659 396.423 0
140.155 397.276 0
136.272 346.942 0
147.814 345.926 0
123.667 382.795 0
173.791 358.188 0
147.814 345.926 0
152.066 344.245 0
164.948 345.741 0
152.066 344.245 0
156.55 343.348 0
164.948 345.741 0
173.791 358.188 0
152.066 344.245 0
173.558 350.711 0
173.791 358.188 0
164.948 345.741 0
164.948 345.741 0
156.55 343.348 0
161.059 343.718 0
147.814 345.926 0
173.791 358.188 0
173.574 365.667 0
140.155 397.276 0
154.659 396.423 0
147.371 398.313 0
160.941 392.269 0
154.659 396.423 0
133.741 393.663 0
128.167 388.769 0
166.237 386.903 0
160.941 392.269 0
166.237 386.903 0
147.814 345.926 0
170.289 380.481 0
172.625 373.147 0
170.289 380.481 0
147.814 345.926 0
147.814 345.926 0
173.574 365.667 0
172.625 373.147 0
128.167 388.769 0
147.814 345.926 0
166.237 386.903 0
3 0 1 2
3 3 4 5
3 6 7 8
3 9 10 11
3 12 13 14
3 15 16 17
3 18 19 20
3 21 22 23
3 24 25 26
3 27 28 29
3 30 31 32
3 33 34 35
3 36 37 38
3 39 40 41
3 42 43 44
3 45 46 47
3 48 49 50
3 51 52 53
3 54 55 56
3 57 58 59
3 60 61 62
3 63 64 65
3 66 67 68
3 69 70 71
3 72 73 74
