ply
format ascii 1.0
element vertex 75
property float x
property float y
property float z
element face 25
property list uchar int vertex_indices
end_header
615.674 304.658 0
619.238 301.726 0
623.961 300.425 0
608.549 316.091 0
607.947 308.439 0
615.674 304.658 0
628.976 300.671 0
633.835 301.891 0
615.674 304.658 0
628.976 300.671 0
615.674 304.658 0
623.961 300.425 0
609.8 323.596 0
615.674 304.658 0
633.835 301.891 0
633.835 301.891 0
612.022 331.236 0
609.8 323.596 0
609.8 323.596 0
608.549 316.091 0
615.674 304.658 0
615.663 339.204 0
633.835 301.891 0
620.699 346.478 0
662.549 346.593 0
626.904 352.627 0
620.699 346.478 0
612.022 331.236 0
633.835 301.891 0
615.663 339.204 0
656.858 352.644 0
634.154 357.356 0
626.904 352.627 0
666.825 339.183 0
620.699 346.478 0
633.835 301.891 0
671.316 313.727 0
646.752 300.731 0
651.57 298.667 0
665.645 300.781 0
651.57 298.667 0
656.648 297.658 0
665.645 300.781 0
671.316 313.727 0
651.57 298.667 0
671.437 305.327 0
671.316 313.727 0
665.645 300.781 0
665.645 300.781 0
656.648 297.658 0
661.637 298.295 0
646.752 300.731 0
671.316 313.727 0
670.602 322.105 0
634.154 357.356 0
650.172 357.302 0
642.402 359.292 0
656.858 352.644 0
650.172 357.302 0
634.154 357.356 0
666.825 339.183 0
662.549 346.593 0
620.699 346.478 0
662.549 346.593 0
656.858 352.644 0
626.904 352.627 0
669.228 330.586 0
666.825 339.183 0
633.835 301.891 0
646.752 300.731 0
670.602 322.105 0
669.228 330.586 0
669.228 330.586 0
633.835 301.891 0
646.752 300.731 0
3 0 1 2
3 3 4 5
3 6 7 8
3 9 10 11
3 12 13 14
3 15 16 17
3 18 19 20
3 21 22 23
3 24 25 26
3 27 28 29
3 30 31 32
3 33 34 35
3 36 37 38
3 39 40 41
3 42 43 44
3 45 46 47
3 48 49 50
3 51 52 53
3 54 55 56
3 57 58 59
3 60 61 62
3 63 64 65
3 66 67 68
3 69 70 71
3 72 73 74
