ply
format ascii 1.0
element vertex 27
property float x
property float y
property float z
property float u
property float v
end_header
285.192 428.233 0 285.192 428.233
278.607 427.356 0 278.607 427.356
272.624 423.837 0 272.624 423.837
267.407 418.944 0 267.407 418.944
263.194 412.903 0 263.194 412.903
260.103 406.026 0 260.103 406.026
257.551 399.293 0 257.551 399.293
255.433 392.645 0 255.433 392.645
253.842 385.85 0 253.842 385.85
255.622 381.559 0 255.622 381.559
257.936 378.553 0 257.936 378.553
261.599 376.774 0 261.599 376.774
265.794 376.333 0 265.794 376.333
270.054 376.829 0 270.054 376.829
281.582 374.874 0 281.582 374.874
285.741 373.078 0 285.741 373.078
290.191 372.187 0 290.191 372.187
294.608 372.759 0 294.608 372.759
298.253 374.897 0 298.253 374.897
306.836 377.859 0 306.836 377.859
307.555 384.732 0 307.555 384.732
307.753 391.636 0 307.753 391.636
307.164 398.808 0 307.164 398.808
305.24 406.409 0 305.24 406.409
301.912 413.535 0 301.912 413.535
297.512 419.913 0 297.512 419.913
292.071 425.255 0 292.071 425.255
