ply
format ascii 1.0
element vertex 27
property float x
property float y
property float z
property float u
property float v
end_header
467.048 451.659 0 467.048 451.659
459.81 450.731 0 459.81 450.731
453.272 447.19 0 453.272 447.19
447.526 442.234 0 447.526 442.234
443.084 435.831 0 443.084 435.831
440.357 427.992 0 440.357 427.992
438.289 419.917 0 438.289 419.917
436.462 411.784 0 436.462 411.784
434.991 403.614 0 434.991 403.614
438.554 397.995 0 438.554 397.995
441.914 394.997 0 441.914 394.997
446.408 393.453 0 446.408 393.453
451.264 393.366 0 451.264 393.366
456.117 394.269 0 456.117 394.269
467.882 394.252 0 467.882 394.252
471.82 392.813 0 471.82 392.813
476.017 392.127 0 476.017 392.127
480.213 392.302 0 480.213 392.302
483.986 393.802 0 483.986 393.802
492.891 397.86 0 492.891 397.86
493.539 405.189 0 493.539 405.189
493.483 412.505 0 493.483 412.505
492.512 420.037 0 492.512 420.037
490.235 428.012 0 490.235 428.012
486.562 435.89 0 486.562 435.89
481.536 443.005 0 481.536 443.005
475.121 448.765 0 475.121 448.765
