ply
format ascii 1.0
element vertex 75
property float x
property float y
property float z
element face 25
property list uchar int vertex_indices
end_header
255.473 381.6 0
258.257 378.661 0
262.096 376.935 0
249.194 394.21 0
247.962 387.384 0
255.473 381.6 0
266.342 376.412 0
270.567 376.771 0
255.473 381.6 0
266.342 376.412 0
255.473 381.6 0
262.096 376.935 0
250.979 400.879 0
255.473 381.6 0
270.567 376.771 0
270.567 376.771 0
253.735 407.459 0
250.979 400.879 0
250.979 400.879 0
249.194 394.21 0
255.473 381.6 0
263.29 419.593 0
257.899 413.903 0
302.272 401.756 0
301.314 408.961 0
269.603 424.19 0
263.29 419.593 0
270.567 376.771 0
257.899 413.903 0
253.735 407.459 0
269.603 424.19 0
295.073 421.019 0
276.617 427.446 0
270.567 376.771 0
302.272 401.756 0
257.899 413.903 0
302.448 387.333 0
282.065 374.734 0
286.089 372.921 0
297.829 375.041 0
286.089 372.921 0
290.351 372.053 0
297.829 375.041 0
302.448 387.333 0
286.089 372.921 0
301.869 380.199 0
302.448 387.333 0
297.829 375.041 0
297.829 375.041 0
290.351 372.053 0
294.548 372.714 0
282.065 374.734 0
302.448 387.333 0
302.575 394.512 0
276.617 427.446 0
290.331 425.636 0
284.239 428.027 0
276.617 427.446 0
295.073 421.019 0
290.331 425.636 0
301.314 408.961 0
298.828 415.419 0
269.603 424.19 0
269.603 424.19 0
298.828 415.419 0
295.073 421.019 0
302.272 401.756 0
301.314 408.961 0
263.29 419.593 0
282.065 374.734 0
302.575 394.512 0
302.272 401.756 0
270.567 376.771 0
282.065 374.734 0
302.272 401.756 0
3 0 1 2
3 3 4 5
3 6 7 8
3 9 10 11
3 12 13 14
3 15 16 17
3 18 19 20
3 21 22 23
3 24 25 26
3 27 28 29
3 30 31 32
3 33 34 35
3 36 37 38
3 39 40 41
3 42 43 44
3 45 46 47
3 48 49 50
3 51 52 53
3 54 55 56
3 57 58 59
3 60 61 62
3 63 64 65
3 66 67 68
3 69 70 71
3 72 73 74
