ply
format ascii 1.0
element vertex 75
property float x
property float y
property float z
element face 25
property list uchar int vertex_indices
end_header
438.677 396.07 0
442.698 393.095 0
447.93 391.954 0
431.298 408.275 0
430.467 400.128 0
438.677 396.07 0
438.677 396.07 0
453.412 392.519 0
432.632 416.387 0
453.412 392.519 0
438.677 396.07 0
447.93 391.954 0
458.723 394.138 0
432.632 416.387 0
453.412 392.519 0
458.723 394.138 0
434.741 424.744 0
432.632 416.387 0
432.632 416.387 0
431.298 408.275 0
438.677 396.07 0
434.741 424.744 0
458.723 394.138 0
438.265 433.408 0
438.265 433.408 0
489.225 429.74 0
443.5 440.932 0
485.294 438.122 0
449.926 447.002 0
443.5 440.932 0
457.241 451.656 0
449.926 447.002 0
479.899 445.259 0
458.723 394.138 0
489.225 429.74 0
438.265 433.408 0
493.825 404.653 0
471.008 394.149 0
475.604 392.323 0
493.825 404.653 0
475.604 392.323 0
480.417 391.436 0
488.767 394.257 0
493.825 404.653 0
480.417 391.436 0
493.871 396.716 0
493.825 404.653 0
488.767 394.257 0
488.767 394.257 0
480.417 391.436 0
485.097 391.963 0
471.008 394.149 0
493.825 404.653 0
493.073 412.548 0
457.241 451.656 0
473.253 450.85 0
465.372 453.693 0
479.899 445.259 0
473.253 450.85 0
457.241 451.656 0
489.225 429.74 0
485.294 438.122 0
443.5 440.932 0
485.294 438.122 0
479.899 445.259 0
449.926 447.002 0
471.008 394.149 0
491.609 420.823 0
489.225 429.74 0
471.008 394.149 0
493.073 412.548 0
491.609 420.823 0
471.008 394.149 0
489.225 429.74 0
458.723 394.138 0
3 0 1 2
3 3 4 5
3 6 7 8
3 9 10 11
3 12 13 14
3 15 16 17
3 18 19 20
3 21 22 23
3 24 25 26
3 27 28 29
3 30 31 32
3 33 34 35
3 36 37 38
3 39 40 41
3 42 43 44
3 45 46 47
3 48 49 50
3 51 52 53
3 54 55 56
3 57 58 59
3 60 61 62
3 63 64 65
3 66 67 68
3 69 70 71
3 72 73 74
